<svg width="15" height="14" viewBox="0 0 15 14" fill="none" xmlns="http://www.w3.org/2000/svg">
    <path d="M5.94548 0.372457C5.69027 0.481832 5.69808 0.893291 5.95589 1.00267C6.19548 1.10162 6.43766 0.940166 6.43766 0.684957C6.43766 0.421937 6.19027 0.265687 5.94548 0.372457Z"
          fill="#303030"/>
    <path d="M8.73193 0.385477C8.68506 0.411519 8.63037 0.463602 8.60693 0.500061C8.55225 0.583394 8.55225 0.786519 8.60433 0.867248C8.79704 1.15891 9.24496 1.03131 9.24496 0.684956C9.24496 0.416727 8.95589 0.247456 8.73193 0.385477Z"
          fill="#303030"/>
    <path d="M3.15381 2.10683C2.61735 2.211 2.40902 2.88027 2.79183 3.2761C3.12516 3.61725 3.70329 3.5235 3.91943 3.09381C3.94548 3.04433 3.97152 2.92454 3.97933 2.83079C3.98975 2.68496 3.98193 2.63548 3.92725 2.51829C3.78402 2.20579 3.47933 2.04433 3.15381 2.10683Z"
          fill="#303030"/>
    <path d="M5.97152 2.10683C5.42204 2.20839 5.2085 2.88548 5.60433 3.28131C6.021 3.69798 6.74235 3.43235 6.79183 2.84381C6.82829 2.4011 6.41162 2.0261 5.97152 2.10683Z"
          fill="#303030"/>
    <path d="M8.78402 2.10683C8.43245 2.17194 8.17985 2.49485 8.2085 2.84381C8.25798 3.43235 8.97933 3.69798 9.396 3.28131C9.73454 2.94017 9.62777 2.34381 9.19548 2.16152C9.04443 2.09642 8.92204 2.08079 8.78402 2.10683Z"
          fill="#303030"/>
    <path d="M11.5679 2.10683C11.3543 2.1485 11.1746 2.29694 11.0731 2.51829C11.0184 2.63548 11.0106 2.68496 11.021 2.83079C11.0496 3.20579 11.2944 3.45058 11.6694 3.47923C11.8153 3.48964 11.8647 3.48183 11.9819 3.42714C12.4246 3.22402 12.5444 2.69277 12.2293 2.32037C12.0913 2.15631 11.797 2.06256 11.5679 2.10683Z"
          fill="#303030"/>
    <path d="M5.76839 4.60162C5.5861 4.66152 5.47152 4.73704 5.3335 4.88548C5.13818 5.09381 5.05225 5.30996 5.05225 5.59381C5.05225 6.00787 5.2762 6.36464 5.6512 6.54173C5.80745 6.61725 5.84131 6.62246 6.09391 6.62246C6.34652 6.62246 6.38037 6.61725 6.54183 6.53912C6.76318 6.43496 6.93506 6.26308 7.03923 6.04173C7.11735 5.88027 7.12256 5.84642 7.12256 5.59381C7.12256 5.34121 7.11735 5.30735 7.04183 5.1511C6.86214 4.77089 6.50537 4.54954 6.08089 4.55475C5.98193 4.55475 5.8387 4.57558 5.76839 4.60162Z"
          fill="#303030"/>
    <path d="M8.60433 4.59121C8.31266 4.68235 8.0861 4.87767 7.9585 5.1511C7.88298 5.30735 7.87777 5.34121 7.87777 5.59381C7.87777 5.84642 7.88298 5.88027 7.9611 6.04173C8.06527 6.26308 8.23714 6.43496 8.4585 6.53912C8.61995 6.61725 8.65381 6.62246 8.90641 6.62246C9.15902 6.62246 9.19287 6.61725 9.34912 6.54173C9.88818 6.28652 10.1069 5.63287 9.83089 5.09642C9.76839 4.97662 9.56527 4.76569 9.43766 4.69277C9.2085 4.55735 8.84912 4.51308 8.60433 4.59121Z"
          fill="#303030"/>
    <path d="M3.11995 4.91673C2.81527 4.99225 2.59912 5.2735 2.59912 5.59381C2.59912 5.99746 2.94808 6.32558 3.34391 6.29173C3.93245 6.24225 4.19808 5.52089 3.78141 5.10423C3.61475 4.94017 3.3387 4.86204 3.11995 4.91673Z"
          fill="#303030"/>
    <path d="M11.5158 4.92714C11.2111 5.0261 11.0158 5.28652 11.0158 5.59381C11.0158 6.06777 11.4793 6.40631 11.9299 6.25787C12.5106 6.06516 12.5679 5.25266 12.0184 4.97141C11.8804 4.9011 11.659 4.88027 11.5158 4.92714Z"
          fill="#303030"/>
    <path d="M0.994954 5.30735C0.901204 5.36464 0.833496 5.49485 0.833496 5.61204C0.833496 5.70319 0.914225 5.8386 1.00016 5.89329C1.0835 5.94798 1.28662 5.94798 1.36735 5.89589C1.65902 5.70319 1.53141 5.25527 1.18506 5.25527C1.12516 5.25527 1.04443 5.27871 0.994954 5.30735Z"
          fill="#303030"/>
    <path d="M13.6252 5.30735C13.4168 5.43496 13.422 5.75787 13.633 5.89589C13.7137 5.94798 13.9168 5.94798 14.0002 5.89329C14.2918 5.70319 14.1616 5.25527 13.8153 5.25527C13.7554 5.25527 13.6746 5.27871 13.6252 5.30735Z"
          fill="#303030"/>
    <path d="M5.77881 7.4011C5.31266 7.57819 5.05225 7.94016 5.05225 8.40631C5.05225 8.69277 5.13818 8.90631 5.3335 9.11464C5.54443 9.3386 5.78923 9.44798 6.09391 9.44798C6.50798 9.44798 6.86475 9.22402 7.04183 8.84902C7.11735 8.69277 7.12256 8.65891 7.12256 8.40631C7.12256 8.15371 7.11735 8.11985 7.03923 7.95839C6.93506 7.73704 6.76318 7.56516 6.54183 7.461C6.38818 7.38808 6.3361 7.37766 6.11995 7.37246C5.9611 7.36725 5.8387 7.37766 5.77881 7.4011Z"
          fill="#303030"/>
    <path d="M8.53402 7.42714C8.23454 7.55214 8.08089 7.69798 7.94808 7.98183C7.88558 8.11725 7.87777 8.16412 7.87777 8.40631C7.87777 8.65891 7.88298 8.69277 7.9585 8.84902C8.13558 9.22402 8.49235 9.44798 8.90641 9.44798C9.2111 9.44798 9.45589 9.3386 9.66683 9.11464C9.86214 8.90631 9.94808 8.69277 9.94808 8.40631C9.94808 7.99225 9.72412 7.63548 9.34912 7.45839C9.20329 7.38808 9.146 7.37766 8.93246 7.36985C8.71891 7.36464 8.66423 7.37246 8.53402 7.42714Z"
          fill="#303030"/>
    <path d="M3.03662 7.75527C2.67464 7.8985 2.50016 8.32558 2.65641 8.68496C2.84652 9.12767 3.43766 9.23965 3.78141 8.8959C4.11995 8.55735 4.01839 7.97923 3.58089 7.76829C3.42985 7.69798 3.19548 7.69017 3.03662 7.75527Z"
          fill="#303030"/>
    <path d="M11.495 7.73444C11.3543 7.78131 11.1668 7.94277 11.0965 8.08079C11.008 8.24746 11.0002 8.54694 11.0783 8.70319C11.3439 9.23444 12.1121 9.22402 12.3439 8.68496C12.5002 8.32298 12.3205 7.89069 11.9611 7.75527C11.8127 7.70058 11.6278 7.69277 11.495 7.73444Z"
          fill="#303030"/>
    <path d="M1.09912 8.07037C0.955892 8.09902 0.833496 8.25006 0.833496 8.39329C0.833496 8.67194 1.1512 8.84121 1.38298 8.68496C1.69548 8.47402 1.47412 7.98964 1.09912 8.07037Z"
          fill="#303030"/>
    <path d="M13.7241 8.07037C13.5366 8.10944 13.422 8.34121 13.495 8.53131C13.5965 8.80215 14.0184 8.81517 14.1304 8.54954C14.2476 8.26829 14.0262 8.00787 13.7241 8.07037Z"
          fill="#303030"/>
    <path d="M3.00798 10.5756C2.74756 10.7006 2.59912 10.9297 2.59912 11.2032C2.59912 11.6042 2.89339 11.9011 3.29183 11.9011C3.9012 11.9037 4.2111 11.1719 3.79183 10.7292C3.66683 10.5964 3.52881 10.5339 3.32048 10.5235C3.16683 10.5157 3.11735 10.5235 3.00798 10.5756Z"
          fill="#303030"/>
    <path d="M5.87256 10.5495C5.55746 10.6719 5.36735 10.974 5.40381 11.2865C5.47412 11.8777 6.2085 12.1146 6.60954 11.6771C7.021 11.2292 6.69287 10.5079 6.0835 10.5183C6.01058 10.5183 5.91423 10.5339 5.87256 10.5495Z"
          fill="#303030"/>
    <path d="M8.6486 10.56C8.51318 10.6094 8.3387 10.7735 8.271 10.9193C8.05485 11.3699 8.4012 11.9011 8.90641 11.9011C9.29443 11.9011 9.59391 11.6042 9.59391 11.2214C9.59652 10.9402 9.44808 10.698 9.20329 10.5808C9.06787 10.5157 8.79704 10.5053 8.6486 10.56Z"
          fill="#303030"/>
    <path d="M11.5106 10.5391C11.3309 10.5938 11.1668 10.7344 11.0809 10.9063C11.0549 10.9558 11.0288 11.0756 11.021 11.1693C11.0106 11.3152 11.0184 11.3646 11.0731 11.4818C11.1981 11.7527 11.4246 11.9011 11.7085 11.9011C12.4585 11.9011 12.6746 10.8959 11.9924 10.5782C11.8595 10.5157 11.6486 10.4975 11.5106 10.5391Z"
          fill="#303030"/>
    <path d="M5.94548 13.0001C5.771 13.0808 5.70068 13.3308 5.80745 13.5053C5.86475 13.599 5.99495 13.6667 6.11214 13.6667C6.20329 13.6667 6.3387 13.586 6.39339 13.5001C6.44808 13.4167 6.44808 13.2136 6.396 13.1329C6.30225 12.9896 6.09912 12.9297 5.94548 13.0001Z"
          fill="#303030"/>
    <path d="M8.75277 13.0105C8.61995 13.0756 8.56266 13.1693 8.56266 13.3126C8.56266 13.4532 8.61214 13.5443 8.73193 13.6146C8.95589 13.7527 9.24496 13.5834 9.24496 13.3152C9.24496 13.1797 9.16423 13.0495 9.04964 13.0001C8.93246 12.9532 8.85954 12.9532 8.75277 13.0105Z"
          fill="#303030"/>
</svg>
