<svg width="14" height="18" viewBox="0 0 14 18" fill="none" xmlns="http://www.w3.org/2000/svg">
    <path d="M13.0418 11.9976V2.95829C13.0418 2.03782 12.2957 1.29163 11.3752 1.29163H2.62516C1.70469 1.29163 0.958496 2.03782 0.958496 2.95829V15.0416C0.958496 15.9621 1.70469 16.7083 2.62516 16.7083H2.8335M13.0418 11.9976V12.3035C13.0418 12.9389 12.8351 13.5571 12.4526 14.0655C11.2006 15.7291 9.23566 16.7083 7.149 16.7083H2.8335M13.0418 11.9976C13.0418 14.1389 10.034 14.1389 8.745 13.2824L7.8245 14.1997C6.21283 15.806 5.1127 16.7083 2.8335 16.7083M4.29188 4.62496H9.70855M4.29188 7.99997H9.70855M4.29188 11.375H6.37516" stroke="#505050" stroke-width="1.5" stroke-linecap="round" stroke-linejoin="round"/>
</svg>
