<svg width="1317" height="18" viewBox="0 0 1317 18" fill="none" xmlns="http://www.w3.org/2000/svg">
    <path d="M-166 3V15M-163.5 6V12M-161 4V14M-158.5 6V12M-156 4V14M-153.5 7V11M-151 4V14M-148.5 5V13M-146 8V10M-143.5 4V14M-141 7V11M-138.5 6V12M-136 3V15M-133.5 3V15M-131 3V15M-128.5 2V16M-126 6V12M-123.5 8V10M-121 1V17M-118.5 6V12M-116 7V11M-113.5 8V10M-111 2V16M-108.5 7V11M-106 6V12M-103.5 8V10M-101 8V10M-98.5 4V14M-96 6V12M-93.5 1V17M-91 7V11M-88.5 7V11M-86 7V11M-83.5 8V10M-81 2V16M-78.5 1V17M-76 4V14M-73.5 4V14M-71 8V10M-68.5 7V11M-66 6V12M-63.5 3V15M-61 2V16M-58.5 6V12M-55.5 8V10M-52.5 1V17M-49.5 6V12M-46.5 7V11M-43.5 8V10M-40.5 2V16M-37.5 7V11M-34.5 6V12M-31.5 8V10M-28.5 8V10M-25.5 4V14M-22.5 6V12M-19.5 1V17M-16.5 7V11M-13.5 7V11M-10.5 7V11M-7.5 8L-7.49997 10M-4.5 2L-4.49997 16M-1.5 1L-1.49997 17M1.5 4L1.50003 14M4.5 4L4.50003 14M7.50003 8V10M10.5 7V11M13.5 6V12M16.5 3V15M19.5 5V13M22.5 2V16M25.5 2V16M28.5 5V13M31.5 8V10M34.5 4V14M37.5 2V16M40.5 3V15M43 6V12M45.5 4V14M48 6V12M50.5 4V14M53 7V11M55.5 4V14M58 5V13M60.5 8V10M63 4V14M65.5 7V11M68 6V12M70.5 3V15M73 3V15M75.5 3V15M78 2V16M80.5 6V12M83 8V10M85.5 1V17M88 6V12M90.5 7V11M93 8V10M95.5 2V16M98 7V11M100.5 6V12M103 8V10M105.5 8V10M108 4V14M110.5 6V12M113 1V17M115.5 7V11M118 7V11M120.5 7V11M123 8V10M125.5 2V16M128 1V17M130.5 4V14M133 4V14M135.5 8V10M138 7V11M140.5 6V12M143 3V15M145.5 2V16M148 6V12M151 8V10M154 1V17M157 6V12M160 7V11M163 8V10M166 2V16M169 7V11M172 6V12M175 8V10M178 8V10M181 4V14M184 6V12M187 1V17M190 7V11M193 7V11M196 7V11M199 8L199 10M202 2L202 16M205 1L205 17M208 4L208 14M211 4L211 14M214 8V10M217 7V11M220 6V12M223 3V15M226 5V13M229 2V16M232 2V16M235 5V13M238 8V10M241 4V14M244 2V16M247 3V15M249.5 6V12M252 4V14M254.5 6V12M257 4V14M259.5 7V11M262 4V14M264.5 5V13M267 8V10M269.5 4V14M272 7V11M274.5 6V12M277 3V15M279.5 3V15M282 3V15M284.5 2V16M287 6V12M289.5 8V10M292 1V17M294.5 6V12M297 7V11M299.5 8V10M302 2V16M304.5 7V11M307 6V12M309.5 8V10M312 8V10M314.5 4V14M317 6V12M319.5 1V17M322 7V11M324.5 7V11M327 7V11M329.5 8V10M332 2V16M334.5 1V17M337 4V14M339.5 4V14M342 8V10M344.5 7V11M347 6V12M349.5 3V15M352 2V16M354.5 6V12M357.5 8V10M360.5 1V17M363.5 6V12M366.5 7V11M369.5 8V10M372.5 2V16M375.5 7V11M378.5 6V12M381.5 8V10M384.5 8V10M387.5 4V14M390.5 6V12M393.5 1V17M396.5 7V11M399.5 7V11M402.5 7V11M405.5 8L405.5 10M408.5 2L408.5 16M411.5 1L411.5 17M414.5 4L414.5 14M417.5 4L417.5 14M420.5 8V10M423.5 7V11M426.5 6V12M429.5 3V15M432.5 5V13M435.5 2V16M438.5 2V16M441.5 5V13M444.5 8V10M447.5 4V14M450.5 2V16M453.5 3V15M456 6V12M458.5 4V14M461 6V12M463.5 4V14M466 7V11M468.5 4V14M471 5V13M473.5 8V10M476 4V14M478.5 7V11M481 6V12M483.5 3V15M486 3V15M488.5 3V15M491 2V16M493.5 6V12M496 8V10M498.5 1V17M501 6V12M503.5 7V11M506 8V10M508.5 2V16M511 7V11M513.5 6V12M516 8V10M518.5 8V10M521 4V14M523.5 6V12M526 1V17M528.5 7V11M531 7V11M533.5 7V11M536 8V10M538.5 2V16M541 1V17M543.5 4V14M546 4V14M548.5 8V10M551 7V11M553.5 6V12M556 3V15M558.5 2V16M561 6V12M564 8V10M567 1V17M570 6V12M573 7V11M576 8V10M579 2V16M582 7V11M585 6V12M588 8V10M591 8V10M594 4V14M597 6V12M600 1V17M603 7V11M606 7V11M609 7V11M612 8V10M615 2V16M618 1V17M621 4V14M624 4V14M627 8V10M630 7V11M633 6V12M636 3V15M639 5V13M642 2V16M645 2V16M648 5V13M651 8V10M654 4V14M657 2V16M660 3V15M662.5 6V12M665 4V14M667.5 6V12M670 4V14M672.5 7V11M675 4V14M677.5 5V13M680 8V10M682.5 4V14M685 7V11M687.5 6V12M690 3V15M692.5 3V15M695 3V15M697.5 2V16M700 6V12M702.5 8V10M705 1V17M707.5 6V12M710 7V11M712.5 8V10M715 2V16M717.5 7V11M720 6V12M722.5 8V10M725 8V10M727.5 4V14M730 6V12M732.5 1V17M735 7V11M737.5 7V11M740 7V11M742.5 8V10M745 2V16M747.5 1V17M750 4V14M752.5 4V14M755 8V10M757.5 7V11M760 6V12M762.5 3V15M765 2V16M767.5 6V12M770.5 8V10M773.5 1V17M776.5 6V12M779.5 7V11M782.5 8V10M785.5 2V16M788.5 7V11M791.5 6V12M794.5 8V10M797.5 8V10M800.5 4V14M803.5 6V12M806.5 1V17M809.5 7V11M812.5 7V11M815.5 7V11M818.5 8V10M821.5 2V16M824.5 1V17M827.5 4V14M830.5 4V14M833.5 8V10M836.5 7V11M839.5 6V12M842.5 3V15M845.5 5V13M848.5 2V16M851.5 2V16M854.5 5V13M857.5 8V10M860.5 4V14M863.5 2V16M866.5 3V15M869 6V12M871.5 4V14M874 6V12M876.5 4V14M879 7V11M881.5 4V14M884 5V13M886.5 8V10M889 4V14M891.5 7V11M894 6V12M896.5 3V15M899 3V15M901.5 3V15M904 2V16M906.5 6V12M909 8V10M911.5 1V17M914 6V12M916.5 7V11M919 8V10M921.5 2V16M924 7V11M926.5 6V12M929 8V10M931.5 8V10M934 4V14M936.5 6V12M939 1V17M941.5 7V11M944 7V11M946.5 7V11M949 8V10M951.5 2V16M954 1V17M956.5 4V14M959 4V14M961.5 8V10M964 7V11M966.5 6V12M969 3V15M971.5 2V16M974 6V12M977 8V10M980 1V17M983 6V12M986 7V11M989 8V10M992 2V16M995 7V11M998 6V12M1001 8V10M1004 8V10M1007 4V14M1010 6V12M1013 1V17M1016 7V11M1019 7V11M1022 7V11M1025 8L1025 10M1028 2L1028 16M1031 1L1031 17M1034 4L1034 14M1037 4L1037 14M1040 8V10M1043 7V11M1046 6V12M1049 3V15M1052 5V13M1055 2V16M1058 2V16M1061 5V13M1064 8V10M1067 4V14M1070 2V16M1073 3V15M1075.5 6V12M1078 4V14M1080.5 6V12M1083 4V14M1085.5 7V11M1088 4V14M1090.5 5V13M1093 8V10M1095.5 4V14M1098 7V11M1100.5 6V12M1103 3V15M1105.5 3V15M1108 3V15M1110.5 2V16M1113 6V12M1115.5 8V10M1118 1V17M1120.5 6V12M1123 7V11M1125.5 8V10M1128 2V16M1130.5 7V11M1133 6V12M1135.5 8V10M1138 8V10M1140.5 4V14M1143 6V12M1145.5 1V17M1148 7V11M1150.5 7V11M1153 7V11M1155.5 8V10M1158 2V16M1160.5 1V17M1163 4V14M1165.5 4V14M1168 8V10M1170.5 7V11M1173 6V12M1175.5 3V15M1178 2V16M1180.5 6V12M1183.5 8V10M1186.5 1V17M1189.5 6V12M1192.5 7V11M1195.5 8V10M1198.5 2V16M1201.5 7V11M1204.5 6V12M1207.5 8V10M1210.5 8V10M1213.5 4V14M1216.5 6V12M1219.5 1V17M1222.5 7V11M1225.5 7V11M1228.5 7V11M1231.5 8V10M1234.5 2V16M1237.5 1V17M1240.5 4V14M1243.5 4V14M1246.5 8V10M1249.5 7V11M1252.5 6V12M1255.5 3V15M1258.5 5V13M1261.5 2V16M1264.5 2V16M1267.5 5V13M1270.5 8V10M1273.5 4V14M1276.5 2V16M1279.5 3V15M1282 6V12M1284.5 4V14M1287 6V12M1289.5 4V14M1292 7V11M1294.5 4V14M1297 5V13M1299.5 8V10M1302 4V14M1304.5 7V11M1307 6V12M1309.5 3V15M1312 3V15M1314.5 3V15M1317 2V16M1319.5 6V12M1322 8V10M1324.5 1V17M1327 6V12M1329.5 7V11M1332 8V10M1334.5 2V16M1337 7V11M1339.5 6V12M1342 8V10M1344.5 8V10M1347 4V14M1349.5 6V12M1352 1V17M1354.5 7V11M1357 7V11M1359.5 7V11M1362 8V10M1364.5 2V16M1367 1V17M1369.5 4V14M1372 4V14M1374.5 8V10M1377 7V11M1379.5 6V12M1382 3V15M1384.5 2V16M1387 6V12M1390 8V10M1393 1V17M1396 6V12M1399 7V11M1402 8V10M1405 2V16M1408 7V11M1411 6V12M1414 8V10M1417 8V10M1420 4V14M1423 6V12M1426 1V17M1429 7V11M1432 7V11M1435 7V11M1438 8V10M1441 2V16M1444 1V17M1447 4V14M1450 4V14M1453 8V10M1456 7V11M1459 6V12M1462 3V15M1465 5V13M1468 2V16M1471 2V16M1474 5V13M1477 8V10M1480 4V14M1483 2V16"
          stroke="#EE45BC" stroke-width="1.2" stroke-linecap="round"/>
</svg>
