<svg width="20" height="20" viewBox="0 0 20 20" fill="none" xmlns="http://www.w3.org/2000/svg">
    <path d="M7.5 15.0001V5.29622C7.5 4.89494 7.5 4.6943 7.573 4.53157C7.63735 4.38812 7.74097 4.2658 7.87189 4.17875C8.0204 4.07998 8.21832 4.047 8.61414 3.98103L15.9475 2.75881C16.4816 2.66978 16.7487 2.62527 16.9568 2.70258C17.1395 2.77042 17.2926 2.90012 17.3895 3.06913C17.5 3.26173 17.5 3.53249 17.5 4.074V13.3334M7.5 15.0001C7.5 16.3808 6.38071 17.5001 5 17.5001C3.61929 17.5001 2.5 16.3808 2.5 15.0001C2.5 13.6193 3.61929 12.5001 5 12.5001C6.38071 12.5001 7.5 13.6193 7.5 15.0001ZM17.5 13.3334C17.5 14.7141 16.3807 15.8334 15 15.8334C13.6193 15.8334 12.5 14.7141 12.5 13.3334C12.5 11.9527 13.6193 10.8334 15 10.8334C16.3807 10.8334 17.5 11.9527 17.5 13.3334Z" stroke="#505050" stroke-width="1.2" stroke-linecap="round" stroke-linejoin="round"/>
</svg>
