<svg width="20" height="20" viewBox="0 0 20 20" fill="none" xmlns="http://www.w3.org/2000/svg">
    <path d="M11.6668 9.16663H6.66683M8.3335 12.5H6.66683M13.3335 5.83329H6.66683M16.6668 5.66663V14.3333C16.6668 15.7334 16.6668 16.4335 16.3943 16.9683C16.1547 17.4387 15.7722 17.8211 15.3018 18.0608C14.767 18.3333 14.067 18.3333 12.6668 18.3333H7.3335C5.93336 18.3333 5.2333 18.3333 4.69852 18.0608C4.22811 17.8211 3.84566 17.4387 3.60598 16.9683C3.3335 16.4335 3.3335 15.7334 3.3335 14.3333V5.66663C3.3335 4.26649 3.3335 3.56643 3.60598 3.03165C3.84566 2.56124 4.22811 2.17879 4.69852 1.93911C5.2333 1.66663 5.93336 1.66663 7.3335 1.66663H12.6668C14.067 1.66663 14.767 1.66663 15.3018 1.93911C15.7722 2.17879 16.1547 2.56124 16.3943 3.03165C16.6668 3.56643 16.6668 4.26649 16.6668 5.66663Z" stroke="#505050" stroke-width="1.2" stroke-linecap="round" stroke-linejoin="round"/>
</svg>
